<mxfile>
    <diagram name="Page-1" id="0783ab3e-0a74-02c8-0abd-f7b4e66b4bec">
        <mxGraphModel dx="1118" dy="800" grid="1" gridSize="10" guides="1" tooltips="1" connect="1" arrows="1" fold="1" page="1" pageScale="1" pageWidth="850" pageHeight="1100" math="0" shadow="0">
            <root>
                <mxCell id="0"/>
                <mxCell id="1" parent="0"/>
                <mxCell id="1c1d494c118603dd-1" value="Register New User" style="swimlane;html=1;childLayout=stackLayout;startSize=20;rounded=0;shadow=0;comic=0;labelBackgroundColor=none;strokeWidth=1;fontFamily=Verdana;fontSize=12;align=center;" parent="1" vertex="1">
                    <mxGeometry x="40" y="10" width="750" height="890" as="geometry"/>
                </mxCell>
                <mxCell id="1c1d494c118603dd-2" value="User" style="swimlane;html=1;startSize=20;" parent="1c1d494c118603dd-1" vertex="1">
                    <mxGeometry y="20" width="250" height="870" as="geometry"/>
                </mxCell>
                <mxCell id="60571a20871a0731-4" value="" style="ellipse;whiteSpace=wrap;html=1;rounded=0;shadow=0;comic=0;labelBackgroundColor=none;strokeWidth=1;fontFamily=Verdana;fontSize=12;align=center;strokeColor=#FF3333;fillColor=#000000;" parent="1c1d494c118603dd-2" vertex="1">
                    <mxGeometry x="105" y="40" width="40" height="40" as="geometry"/>
                </mxCell>
                <mxCell id="60571a20871a0731-8" value="&lt;font color=&quot;#000000&quot;&gt;select register&lt;/font&gt;" style="rounded=1;whiteSpace=wrap;html=1;shadow=0;comic=0;labelBackgroundColor=none;strokeWidth=1;fontFamily=Verdana;fontSize=12;align=center;arcSize=50;fillColor=#ffff88;strokeColor=#FF3333;" parent="1c1d494c118603dd-2" vertex="1">
                    <mxGeometry x="75" y="130" width="100" height="30" as="geometry"/>
                </mxCell>
                <mxCell id="1c1d494c118603dd-27" style="edgeStyle=orthogonalEdgeStyle;rounded=0;html=1;labelBackgroundColor=none;startArrow=none;startFill=0;startSize=5;endArrow=classicThin;endFill=1;endSize=5;jettySize=auto;orthogonalLoop=1;strokeWidth=1;fontFamily=Verdana;fontSize=12;strokeColor=#FF3333;" parent="1c1d494c118603dd-2" source="60571a20871a0731-4" target="60571a20871a0731-8" edge="1">
                    <mxGeometry relative="1" as="geometry"/>
                </mxCell>
                <mxCell id="1c1d494c118603dd-8" value="&lt;font color=&quot;#000000&quot;&gt;enter the required information&lt;/font&gt;" style="rounded=1;whiteSpace=wrap;html=1;shadow=0;comic=0;labelBackgroundColor=none;strokeWidth=1;fontFamily=Verdana;fontSize=12;align=center;arcSize=50;fillColor=#ffff88;strokeColor=#FF3333;" parent="1c1d494c118603dd-2" vertex="1">
                    <mxGeometry x="75" y="200" width="100" height="40" as="geometry"/>
                </mxCell>
                <mxCell id="mtZCOBOC90Zqhx0-wA6k-30" value="&lt;font color=&quot;#000000&quot;&gt;verfiy e-mail address&lt;/font&gt;" style="rounded=1;whiteSpace=wrap;html=1;shadow=0;comic=0;labelBackgroundColor=none;strokeWidth=1;fontFamily=Verdana;fontSize=12;align=center;arcSize=50;fillColor=#ffff88;strokeColor=#FF3333;" parent="1c1d494c118603dd-2" vertex="1">
                    <mxGeometry x="75" y="610" width="100" height="40" as="geometry"/>
                </mxCell>
                <mxCell id="1c1d494c118603dd-3" value="System" style="swimlane;html=1;startSize=20;" parent="1c1d494c118603dd-1" vertex="1">
                    <mxGeometry x="250" y="20" width="250" height="870" as="geometry"/>
                </mxCell>
                <mxCell id="mtZCOBOC90Zqhx0-wA6k-19" value="&lt;font color=&quot;#000000&quot;&gt;Field informations correct?&lt;/font&gt;" style="rhombus;whiteSpace=wrap;html=1;rounded=0;sketch=0;fillColor=#ffff88;strokeColor=#FF3333;" parent="1c1d494c118603dd-3" vertex="1">
                    <mxGeometry x="61.25" y="290" width="127.5" height="60" as="geometry"/>
                </mxCell>
                <mxCell id="mtZCOBOC90Zqhx0-wA6k-22" value="&lt;font color=&quot;#000000&quot;&gt;E-mail address already used ?&lt;/font&gt;" style="rhombus;whiteSpace=wrap;html=1;rounded=0;sketch=0;fillColor=#ffff88;strokeColor=#FF3333;" parent="1c1d494c118603dd-3" vertex="1">
                    <mxGeometry x="60.620000000000005" y="400" width="128.75" height="70" as="geometry"/>
                </mxCell>
                <mxCell id="mtZCOBOC90Zqhx0-wA6k-23" style="edgeStyle=none;rounded=0;html=1;labelBackgroundColor=none;startArrow=none;startFill=0;startSize=5;endArrow=classicThin;endFill=1;endSize=5;jettySize=auto;orthogonalLoop=1;strokeWidth=1;fontFamily=Verdana;fontSize=12;exitX=0.5;exitY=1;exitDx=0;exitDy=0;entryX=0.5;entryY=0;entryDx=0;entryDy=0;strokeColor=#FF3333;" parent="1c1d494c118603dd-3" source="mtZCOBOC90Zqhx0-wA6k-19" target="mtZCOBOC90Zqhx0-wA6k-22" edge="1">
                    <mxGeometry relative="1" as="geometry">
                        <mxPoint x="-115" y="250" as="sourcePoint"/>
                        <mxPoint x="71.25" y="330" as="targetPoint"/>
                        <Array as="points"/>
                    </mxGeometry>
                </mxCell>
                <mxCell id="mtZCOBOC90Zqhx0-wA6k-27" value="Yes" style="edgeLabel;html=1;align=center;verticalAlign=middle;resizable=0;points=[];" parent="mtZCOBOC90Zqhx0-wA6k-23" vertex="1" connectable="0">
                    <mxGeometry x="-0.5314" relative="1" as="geometry">
                        <mxPoint as="offset"/>
                    </mxGeometry>
                </mxCell>
                <mxCell id="mtZCOBOC90Zqhx0-wA6k-24" style="edgeStyle=none;rounded=0;html=1;labelBackgroundColor=none;startArrow=none;startFill=0;startSize=5;endArrow=classicThin;endFill=1;endSize=5;jettySize=auto;orthogonalLoop=1;strokeWidth=1;fontFamily=Verdana;fontSize=12;exitX=0.5;exitY=1;exitDx=0;exitDy=0;strokeColor=#FF3333;" parent="1c1d494c118603dd-3" target="mtZCOBOC90Zqhx0-wA6k-20" edge="1">
                    <mxGeometry relative="1" as="geometry">
                        <mxPoint x="190.01" y="320" as="sourcePoint"/>
                        <mxPoint x="310" y="320" as="targetPoint"/>
                        <Array as="points"/>
                    </mxGeometry>
                </mxCell>
                <mxCell id="mtZCOBOC90Zqhx0-wA6k-26" value="No" style="edgeLabel;html=1;align=center;verticalAlign=middle;resizable=0;points=[];" parent="mtZCOBOC90Zqhx0-wA6k-24" vertex="1" connectable="0">
                    <mxGeometry x="-0.3547" y="1" relative="1" as="geometry">
                        <mxPoint x="-23.44" y="0.77" as="offset"/>
                    </mxGeometry>
                </mxCell>
                <mxCell id="mtZCOBOC90Zqhx0-wA6k-29" style="edgeStyle=none;rounded=0;html=1;labelBackgroundColor=none;startArrow=none;startFill=0;startSize=5;endArrow=classicThin;endFill=1;endSize=5;jettySize=auto;orthogonalLoop=1;strokeWidth=1;fontFamily=Verdana;fontSize=12;exitX=0.5;exitY=1;exitDx=0;exitDy=0;strokeColor=#FF3333;" parent="1c1d494c118603dd-3" source="mtZCOBOC90Zqhx0-wA6k-22" target="mtZCOBOC90Zqhx0-wA6k-42" edge="1">
                    <mxGeometry relative="1" as="geometry">
                        <mxPoint x="130" y="480" as="sourcePoint"/>
                        <mxPoint x="135" y="520" as="targetPoint"/>
                        <Array as="points"/>
                    </mxGeometry>
                </mxCell>
                <mxCell id="mtZCOBOC90Zqhx0-wA6k-46" value="No" style="edgeLabel;html=1;align=center;verticalAlign=middle;resizable=0;points=[];" parent="mtZCOBOC90Zqhx0-wA6k-29" vertex="1" connectable="0">
                    <mxGeometry x="-0.48" relative="1" as="geometry">
                        <mxPoint as="offset"/>
                    </mxGeometry>
                </mxCell>
                <mxCell id="mtZCOBOC90Zqhx0-wA6k-37" value="&lt;font color=&quot;#000000&quot;&gt;send verfication e-mail&lt;/font&gt;" style="rounded=1;whiteSpace=wrap;html=1;shadow=0;comic=0;labelBackgroundColor=none;strokeWidth=1;fontFamily=Verdana;fontSize=12;align=center;arcSize=50;fillColor=#ffff88;strokeColor=#FF3333;" parent="1c1d494c118603dd-3" vertex="1">
                    <mxGeometry x="75" y="610" width="100" height="40" as="geometry"/>
                </mxCell>
                <mxCell id="mtZCOBOC90Zqhx0-wA6k-40" value="&lt;font color=&quot;#000000&quot;&gt;unlock account&lt;/font&gt;" style="rounded=1;whiteSpace=wrap;html=1;shadow=0;comic=0;labelBackgroundColor=none;strokeWidth=1;fontFamily=Verdana;fontSize=12;align=center;arcSize=50;fillColor=#ffff88;strokeColor=#FF3333;" parent="1c1d494c118603dd-3" vertex="1">
                    <mxGeometry x="75" y="690" width="100" height="40" as="geometry"/>
                </mxCell>
                <mxCell id="mtZCOBOC90Zqhx0-wA6k-42" value="&lt;font color=&quot;#000000&quot;&gt;save account information&lt;/font&gt;" style="rounded=1;whiteSpace=wrap;html=1;shadow=0;comic=0;labelBackgroundColor=none;strokeWidth=1;fontFamily=Verdana;fontSize=12;align=center;arcSize=50;fillColor=#ffff88;strokeColor=#FF3333;" parent="1c1d494c118603dd-3" vertex="1">
                    <mxGeometry x="75" y="530" width="100" height="40" as="geometry"/>
                </mxCell>
                <mxCell id="mtZCOBOC90Zqhx0-wA6k-44" style="edgeStyle=none;rounded=0;html=1;labelBackgroundColor=none;startArrow=none;startFill=0;startSize=5;endArrow=classicThin;endFill=1;endSize=5;jettySize=auto;orthogonalLoop=1;strokeWidth=1;fontFamily=Verdana;fontSize=12;entryX=0.5;entryY=0;entryDx=0;entryDy=0;strokeColor=#FF3333;" parent="1c1d494c118603dd-3" target="mtZCOBOC90Zqhx0-wA6k-37" edge="1">
                    <mxGeometry relative="1" as="geometry">
                        <mxPoint x="125" y="570" as="sourcePoint"/>
                        <mxPoint x="134.9987500000001" y="540" as="targetPoint"/>
                        <Array as="points"/>
                    </mxGeometry>
                </mxCell>
                <mxCell id="mtZCOBOC90Zqhx0-wA6k-52" style="edgeStyle=orthogonalEdgeStyle;rounded=0;html=1;labelBackgroundColor=none;startArrow=none;startFill=0;startSize=5;endArrow=classicThin;endFill=1;endSize=5;jettySize=auto;orthogonalLoop=1;strokeWidth=1;fontFamily=Verdana;fontSize=12;" parent="1c1d494c118603dd-3" edge="1">
                    <mxGeometry relative="1" as="geometry">
                        <Array as="points">
                            <mxPoint x="170" y="145"/>
                            <mxPoint x="170" y="145"/>
                        </Array>
                        <mxPoint x="-75" y="145" as="sourcePoint"/>
                        <mxPoint x="325" y="145" as="targetPoint"/>
                    </mxGeometry>
                </mxCell>
                <mxCell id="mtZCOBOC90Zqhx0-wA6k-53" style="edgeStyle=none;rounded=0;html=1;labelBackgroundColor=none;startArrow=none;startFill=0;startSize=5;endArrow=classicThin;endFill=1;endSize=5;jettySize=auto;orthogonalLoop=1;strokeWidth=1;fontFamily=Verdana;fontSize=12;exitX=0.5;exitY=1;exitDx=0;exitDy=0;" parent="1c1d494c118603dd-3" edge="1">
                    <mxGeometry relative="1" as="geometry">
                        <mxPoint x="375" y="170" as="sourcePoint"/>
                        <mxPoint x="-75" y="220" as="targetPoint"/>
                        <Array as="points">
                            <mxPoint x="375" y="220"/>
                        </Array>
                    </mxGeometry>
                </mxCell>
                <mxCell id="mtZCOBOC90Zqhx0-wA6k-54" style="edgeStyle=none;rounded=0;html=1;labelBackgroundColor=none;startArrow=none;startFill=0;startSize=5;endArrow=classicThin;endFill=1;endSize=5;jettySize=auto;orthogonalLoop=1;strokeWidth=1;fontFamily=Verdana;fontSize=12;exitX=0.5;exitY=1;exitDx=0;exitDy=0;entryX=0;entryY=0.5;entryDx=0;entryDy=0;" parent="1c1d494c118603dd-3" edge="1">
                    <mxGeometry relative="1" as="geometry">
                        <mxPoint x="-125" y="240" as="sourcePoint"/>
                        <mxPoint x="61.25" y="320" as="targetPoint"/>
                        <Array as="points">
                            <mxPoint x="-125" y="320"/>
                        </Array>
                    </mxGeometry>
                </mxCell>
                <mxCell id="1c1d494c118603dd-29" style="edgeStyle=orthogonalEdgeStyle;rounded=0;html=1;labelBackgroundColor=none;startArrow=none;startFill=0;startSize=5;endArrow=classicThin;endFill=1;endSize=5;jettySize=auto;orthogonalLoop=1;strokeWidth=1;fontFamily=Verdana;fontSize=12;strokeColor=#FF3333;" parent="1c1d494c118603dd-1" source="60571a20871a0731-8" target="1c1d494c118603dd-5" edge="1">
                    <mxGeometry relative="1" as="geometry">
                        <Array as="points">
                            <mxPoint x="420" y="165"/>
                            <mxPoint x="420" y="165"/>
                        </Array>
                        <mxPoint x="390.25" y="190" as="sourcePoint"/>
                    </mxGeometry>
                </mxCell>
                <mxCell id="1c1d494c118603dd-37" style="edgeStyle=none;rounded=0;html=1;labelBackgroundColor=none;startArrow=none;startFill=0;startSize=5;endArrow=classicThin;endFill=1;endSize=5;jettySize=auto;orthogonalLoop=1;strokeWidth=1;fontFamily=Verdana;fontSize=12;exitX=0.5;exitY=1;exitDx=0;exitDy=0;strokeColor=#FF3333;" parent="1c1d494c118603dd-1" source="1c1d494c118603dd-5" target="1c1d494c118603dd-8" edge="1">
                    <mxGeometry relative="1" as="geometry">
                        <mxPoint x="570.564516129032" y="318.0000000000001" as="sourcePoint"/>
                        <Array as="points">
                            <mxPoint x="625" y="240"/>
                        </Array>
                    </mxGeometry>
                </mxCell>
                <mxCell id="1c1d494c118603dd-38" style="edgeStyle=none;rounded=0;html=1;labelBackgroundColor=none;startArrow=none;startFill=0;startSize=5;endArrow=classicThin;endFill=1;endSize=5;jettySize=auto;orthogonalLoop=1;strokeWidth=1;fontFamily=Verdana;fontSize=12;exitX=0.5;exitY=1;exitDx=0;exitDy=0;entryX=0;entryY=0.5;entryDx=0;entryDy=0;strokeColor=#FF3333;" parent="1c1d494c118603dd-1" source="1c1d494c118603dd-8" target="mtZCOBOC90Zqhx0-wA6k-19" edge="1">
                    <mxGeometry relative="1" as="geometry">
                        <mxPoint x="125" y="330" as="targetPoint"/>
                        <Array as="points">
                            <mxPoint x="125" y="340"/>
                        </Array>
                    </mxGeometry>
                </mxCell>
                <mxCell id="mtZCOBOC90Zqhx0-wA6k-25" style="edgeStyle=none;rounded=0;html=1;labelBackgroundColor=none;startArrow=none;startFill=0;startSize=5;endArrow=classicThin;endFill=1;endSize=5;jettySize=auto;orthogonalLoop=1;strokeWidth=1;fontFamily=Verdana;fontSize=12;strokeColor=#FF3333;" parent="1c1d494c118603dd-1" source="mtZCOBOC90Zqhx0-wA6k-22" target="mtZCOBOC90Zqhx0-wA6k-21" edge="1">
                    <mxGeometry relative="1" as="geometry">
                        <mxPoint x="440.01" y="450" as="sourcePoint"/>
                        <mxPoint x="575" y="450.72971511973617" as="targetPoint"/>
                        <Array as="points"/>
                    </mxGeometry>
                </mxCell>
                <mxCell id="mtZCOBOC90Zqhx0-wA6k-28" value="Yes" style="edgeLabel;html=1;align=center;verticalAlign=middle;resizable=0;points=[];" parent="mtZCOBOC90Zqhx0-wA6k-25" vertex="1" connectable="0">
                    <mxGeometry x="-0.66" y="1" relative="1" as="geometry">
                        <mxPoint as="offset"/>
                    </mxGeometry>
                </mxCell>
                <mxCell id="mtZCOBOC90Zqhx0-wA6k-45" style="edgeStyle=none;rounded=0;html=1;labelBackgroundColor=none;startArrow=none;startFill=0;startSize=5;endArrow=classicThin;endFill=1;endSize=5;jettySize=auto;orthogonalLoop=1;strokeWidth=1;fontFamily=Verdana;fontSize=12;exitX=1;exitY=0.5;exitDx=0;exitDy=0;entryX=0;entryY=0.5;entryDx=0;entryDy=0;strokeColor=#FF3333;" parent="1c1d494c118603dd-1" source="mtZCOBOC90Zqhx0-wA6k-37" target="mtZCOBOC90Zqhx0-wA6k-38" edge="1">
                    <mxGeometry relative="1" as="geometry">
                        <mxPoint x="394.9950000000001" y="510" as="sourcePoint"/>
                        <mxPoint x="394.9987500000001" y="570" as="targetPoint"/>
                        <Array as="points"/>
                    </mxGeometry>
                </mxCell>
                <mxCell id="mtZCOBOC90Zqhx0-wA6k-47" style="edgeStyle=none;rounded=0;html=1;labelBackgroundColor=none;startArrow=none;startFill=0;startSize=5;endArrow=classicThin;endFill=1;endSize=5;jettySize=auto;orthogonalLoop=1;strokeWidth=1;fontFamily=Verdana;fontSize=12;exitX=0;exitY=0.5;exitDx=0;exitDy=0;entryX=1;entryY=0.5;entryDx=0;entryDy=0;strokeColor=#FF3333;" parent="1c1d494c118603dd-1" source="mtZCOBOC90Zqhx0-wA6k-37" target="mtZCOBOC90Zqhx0-wA6k-30" edge="1">
                    <mxGeometry relative="1" as="geometry">
                        <mxPoint x="404.9950000000001" y="520" as="sourcePoint"/>
                        <mxPoint x="404.9987500000001" y="580" as="targetPoint"/>
                        <Array as="points"/>
                    </mxGeometry>
                </mxCell>
                <mxCell id="mtZCOBOC90Zqhx0-wA6k-48" style="edgeStyle=none;rounded=0;html=1;labelBackgroundColor=none;startArrow=none;startFill=0;startSize=5;endArrow=classicThin;endFill=1;endSize=5;jettySize=auto;orthogonalLoop=1;strokeWidth=1;fontFamily=Verdana;fontSize=12;exitX=0.5;exitY=1;exitDx=0;exitDy=0;entryX=0;entryY=0.5;entryDx=0;entryDy=0;strokeColor=#FF3333;" parent="1c1d494c118603dd-1" source="mtZCOBOC90Zqhx0-wA6k-30" target="mtZCOBOC90Zqhx0-wA6k-40" edge="1">
                    <mxGeometry relative="1" as="geometry">
                        <mxPoint x="335" y="660" as="sourcePoint"/>
                        <mxPoint x="185" y="660" as="targetPoint"/>
                        <Array as="points">
                            <mxPoint x="125" y="730"/>
                        </Array>
                    </mxGeometry>
                </mxCell>
                <mxCell id="1c1d494c118603dd-4" value="UI" style="swimlane;html=1;startSize=20;rounded=0;" parent="1c1d494c118603dd-1" vertex="1">
                    <mxGeometry x="500" y="20" width="250" height="870" as="geometry"/>
                </mxCell>
                <mxCell id="1c1d494c118603dd-5" value="&lt;font color=&quot;#000000&quot;&gt;show registration formular&amp;nbsp;&lt;/font&gt;" style="rounded=1;whiteSpace=wrap;html=1;shadow=0;comic=0;labelBackgroundColor=none;strokeWidth=1;fontFamily=Verdana;fontSize=12;align=center;arcSize=50;fillColor=#ffff88;strokeColor=#FF3333;" parent="1c1d494c118603dd-4" vertex="1">
                    <mxGeometry x="75" y="120" width="100" height="50" as="geometry"/>
                </mxCell>
                <mxCell id="60571a20871a0731-5" value="" style="shape=mxgraph.bpmn.shape;html=1;verticalLabelPosition=bottom;verticalAlign=top;perimeter=ellipsePerimeter;outline=end;symbol=terminate;rounded=0;shadow=0;comic=0;strokeWidth=1;fontFamily=Verdana;fontSize=12;align=center;" parent="1c1d494c118603dd-4" vertex="1">
                    <mxGeometry x="110" y="810" width="40" height="40" as="geometry"/>
                </mxCell>
                <mxCell id="mtZCOBOC90Zqhx0-wA6k-20" value="&lt;font color=&quot;#000000&quot;&gt;show failure invalid value&amp;nbsp;&lt;/font&gt;" style="rounded=1;whiteSpace=wrap;html=1;shadow=0;comic=0;labelBackgroundColor=none;strokeWidth=1;fontFamily=Verdana;fontSize=12;align=center;arcSize=50;fillColor=#ffff88;strokeColor=#FF3333;" parent="1c1d494c118603dd-4" vertex="1">
                    <mxGeometry x="75" y="306" width="100" height="30" as="geometry"/>
                </mxCell>
                <mxCell id="mtZCOBOC90Zqhx0-wA6k-21" value="&lt;font color=&quot;#000000&quot;&gt;show failure already used e-mail address&lt;/font&gt;" style="rounded=1;whiteSpace=wrap;html=1;shadow=0;comic=0;labelBackgroundColor=none;strokeWidth=1;fontFamily=Verdana;fontSize=12;align=center;arcSize=50;fillColor=#ffff88;strokeColor=#FF3333;" parent="1c1d494c118603dd-4" vertex="1">
                    <mxGeometry x="75" y="415" width="100" height="40" as="geometry"/>
                </mxCell>
                <mxCell id="mtZCOBOC90Zqhx0-wA6k-38" value="show verfication e-mail send" style="rounded=1;whiteSpace=wrap;html=1;shadow=0;comic=0;labelBackgroundColor=none;strokeWidth=1;fontFamily=Verdana;fontSize=12;align=center;arcSize=50;" parent="1c1d494c118603dd-4" vertex="1">
                    <mxGeometry x="75" y="610" width="100" height="40" as="geometry"/>
                </mxCell>
                <mxCell id="mtZCOBOC90Zqhx0-wA6k-39" value="show confirmation for verify e-mail" style="rounded=1;whiteSpace=wrap;html=1;shadow=0;comic=0;labelBackgroundColor=none;strokeWidth=1;fontFamily=Verdana;fontSize=12;align=center;arcSize=50;" parent="1c1d494c118603dd-4" vertex="1">
                    <mxGeometry x="75" y="690" width="100" height="40" as="geometry"/>
                </mxCell>
                <mxCell id="mtZCOBOC90Zqhx0-wA6k-50" style="edgeStyle=none;rounded=0;html=1;labelBackgroundColor=none;startArrow=none;startFill=0;startSize=5;endArrow=classicThin;endFill=1;endSize=5;jettySize=auto;orthogonalLoop=1;strokeWidth=1;fontFamily=Verdana;fontSize=12;exitX=1;exitY=0.5;exitDx=0;exitDy=0;entryX=0;entryY=0.5;entryDx=0;entryDy=0;strokeColor=#FF3333;" parent="1c1d494c118603dd-4" edge="1">
                    <mxGeometry relative="1" as="geometry">
                        <mxPoint x="-75" y="709.8" as="sourcePoint"/>
                        <mxPoint x="75" y="709.8" as="targetPoint"/>
                        <Array as="points"/>
                    </mxGeometry>
                </mxCell>
                <mxCell id="mtZCOBOC90Zqhx0-wA6k-51" style="edgeStyle=none;rounded=0;html=1;labelBackgroundColor=none;startArrow=none;startFill=0;startSize=5;endArrow=classicThin;endFill=1;endSize=5;jettySize=auto;orthogonalLoop=1;strokeWidth=1;fontFamily=Verdana;fontSize=12;exitX=0.544;exitY=1.02;exitDx=0;exitDy=0;entryX=0.5;entryY=0;entryDx=0;entryDy=0;exitPerimeter=0;strokeColor=#FF3333;" parent="1c1d494c118603dd-4" source="mtZCOBOC90Zqhx0-wA6k-39" target="60571a20871a0731-5" edge="1">
                    <mxGeometry relative="1" as="geometry">
                        <mxPoint x="-65" y="719.8" as="sourcePoint"/>
                        <mxPoint x="85" y="719.8" as="targetPoint"/>
                        <Array as="points"/>
                    </mxGeometry>
                </mxCell>
                <mxCell id="mtZCOBOC90Zqhx0-wA6k-77" value="&lt;font color=&quot;#000000&quot;&gt;show confirmation for verify e-mail&lt;/font&gt;" style="rounded=1;whiteSpace=wrap;html=1;shadow=0;comic=0;labelBackgroundColor=none;strokeWidth=1;fontFamily=Verdana;fontSize=12;align=center;arcSize=50;fillColor=#ffff88;strokeColor=#FF3333;" parent="1c1d494c118603dd-4" vertex="1">
                    <mxGeometry x="75" y="690" width="100" height="40" as="geometry"/>
                </mxCell>
                <mxCell id="mtZCOBOC90Zqhx0-wA6k-78" value="&lt;font color=&quot;#000000&quot;&gt;show verfication e-mail send&lt;/font&gt;" style="rounded=1;whiteSpace=wrap;html=1;shadow=0;comic=0;labelBackgroundColor=none;strokeWidth=1;fontFamily=Verdana;fontSize=12;align=center;arcSize=50;fillColor=#ffff88;strokeColor=#FF3333;" parent="1c1d494c118603dd-4" vertex="1">
                    <mxGeometry x="75" y="610" width="100" height="40" as="geometry"/>
                </mxCell>
            </root>
        </mxGraphModel>
    </diagram>
</mxfile>